<svg width="124" height="33" viewBox="0 0 124 33" fill="none" xmlns="http://www.w3.org/2000/svg">
<path d="M96.8759 1.00024C106.07 1.00024 112.295 7.68341 112.295 16.9719C112.295 26.2038 106.413 32.887 97.2185 32.887C90.8225 32.887 84.4834 30.1117 82.656 21.7861H90.1942C91.2793 25.4109 94.0776 26.8268 96.8188 26.8268C101.159 26.8268 104.243 23.2586 104.243 16.8586C104.243 10.5153 100.988 7.06042 96.8759 7.06042C93.8492 7.06042 91.108 9.15599 90.4798 12.1011H82.9416C84.0266 4.56838 90.4227 1.00024 96.8759 1.00024Z" fill="white"/>
<path d="M79.8054 10.9684C78.7204 3.94537 72.6669 1.00024 66.2708 1.00024C59.6463 1.00024 53.7071 4.62502 53.7071 10.0622C53.7071 15.6126 57.5333 17.9914 63.3011 19.1808L67.8698 20.1436C70.5539 20.7666 72.8954 21.6162 72.8954 23.8816C72.8954 26.0905 70.7823 27.3365 67.3559 27.3365C63.2441 27.3365 61.1881 25.1277 60.7313 22.1825H53.136C53.8784 29.1489 59.5892 33.0002 67.1274 33.0002C74.0946 33.0002 80.4336 29.2622 80.4336 23.1454C80.4336 16.8586 75.2367 15.3294 69.1262 13.9701L65.0144 13.064C62.1019 12.4409 60.9026 11.1949 60.9026 9.55245C60.9026 7.68343 62.9586 6.60733 65.871 6.60733C69.5259 6.60733 71.8103 8.41971 72.4385 10.9684H79.8054Z" fill="white"/>
<path d="M114.144 10.6267V1.96997H123V10.6267H114.144ZM114.144 32.0306V23.3739H123V32.0306H114.144Z" fill="white"/>
<path d="M7.61434 32.3862H0L11.5484 1.96997H19.5012L31.0919 32.3862H23.4775L17.0042 14.0316H17.0005L15.4825 9.56355L12.2291 19.0374L7.61434 32.3862Z" fill="white"/>
<path d="M51.0452 2.13989C50.5312 2.08325 49.8459 2.02661 49.332 2.02661C45.7342 2.02661 42.993 3.49917 41.2227 7.29387V1.96997H33.4561V32.4408H41.3369V16.4691C41.3369 11.1821 44.7721 9.3328 47.79 9.3328C48.9322 9.3328 49.903 9.3328 51.0452 9.50271V2.13989Z" fill="white"/>
</svg>
